<mxfile host="drawio-plugin" modified="2023-03-11T08:54:12.629Z" agent="5.0 (Macintosh; Intel Mac OS X 10_15_7) AppleWebKit/537.36 (KHTML, like Gecko) Chrome/104.0.5112.102 Safari/537.36" version="20.5.3" etag="fw3HHWQsZQdvcNUuZ0xF" type="embed"><diagram id="GjYR2KaCANOD1rIOb71q" name="Page-1"><mxGraphModel dx="1850" dy="1844" grid="1" gridSize="10" guides="1" tooltips="1" connect="1" arrows="1" fold="1" page="1" pageScale="1" pageWidth="850" pageHeight="1100" math="0" shadow="0"><root><mxCell id="0"/><mxCell id="1" parent="0"/><mxCell id="96" value="" style="rounded=0;whiteSpace=wrap;html=1;fontSize=11;strokeColor=#66B2FF;" vertex="1" parent="1"><mxGeometry x="-190" y="-10" width="1020" height="800" as="geometry"/></mxCell><mxCell id="84" value="" style="edgeStyle=orthogonalEdgeStyle;rounded=0;orthogonalLoop=1;jettySize=auto;html=1;strokeColor=#330000;fontSize=8;fontColor=#66B2FF;entryX=0.5;entryY=0;entryDx=0;entryDy=0;shape=link;" edge="1" parent="1" source="17" target="68"><mxGeometry relative="1" as="geometry"/></mxCell><mxCell id="85" value="&lt;font style=&quot;font-size: 11px;&quot;&gt;DATA REPLICATION&lt;/font&gt;" style="edgeLabel;html=1;align=center;verticalAlign=middle;resizable=0;points=[];fontSize=8;fontColor=#66B2FF;" vertex="1" connectable="0" parent="84"><mxGeometry x="0.0023" y="1" relative="1" as="geometry"><mxPoint x="64" y="-4" as="offset"/></mxGeometry></mxCell><mxCell id="17" value="REGION INDIA - ACTIVE" style="points=[[0,0],[0.25,0],[0.5,0],[0.75,0],[1,0],[1,0.25],[1,0.5],[1,0.75],[1,1],[0.75,1],[0.5,1],[0.25,1],[0,1],[0,0.75],[0,0.5],[0,0.25]];outlineConnect=0;html=1;whiteSpace=wrap;fontSize=12;fontStyle=0;container=1;pointerEvents=0;collapsible=0;recursiveResize=0;shape=mxgraph.aws4.group;grIcon=mxgraph.aws4.group_region;verticalAlign=top;align=left;spacingLeft=30;dashed=1;strokeColor=#66B2FF;" vertex="1" parent="1"><mxGeometry x="150" y="20" width="610" height="336.88" as="geometry"/></mxCell><mxCell id="11" value="Private subnet" style="points=[[0,0],[0.25,0],[0.5,0],[0.75,0],[1,0],[1,0.25],[1,0.5],[1,0.75],[1,1],[0.75,1],[0.5,1],[0.25,1],[0,1],[0,0.75],[0,0.5],[0,0.25]];outlineConnect=0;html=1;whiteSpace=wrap;fontSize=12;fontStyle=0;container=1;pointerEvents=0;collapsible=0;recursiveResize=0;shape=mxgraph.aws4.group;grIcon=mxgraph.aws4.group_security_group;grStroke=0;verticalAlign=top;align=left;spacingLeft=30;dashed=0;strokeColor=#66B2FF;perimeterSpacing=1;fillColor=#FFFFFF;gradientColor=#3399FF;" vertex="1" parent="17"><mxGeometry x="290" y="40" width="280" height="263.12" as="geometry"/></mxCell><mxCell id="10" value="&lt;font style=&quot;font-size: 9px;&quot;&gt;INTERNAL&lt;br&gt;LOAD BALANCER&lt;/font&gt;" style="verticalLabelPosition=bottom;html=1;verticalAlign=top;align=center;shape=mxgraph.azure.load_balancer_generic;pointerEvents=1;direction=north;fillColor=#66B2FF;strokeColor=#3399FF;" vertex="1" parent="17"><mxGeometry x="304" y="140" width="70" height="47.5" as="geometry"/></mxCell><mxCell id="5" value="&lt;font style=&quot;font-size: 9px;&quot;&gt;AZ2&lt;/font&gt;" style="verticalLabelPosition=bottom;html=1;verticalAlign=top;align=center;shape=mxgraph.azure.virtual_machine;fillColor=#FFFFFF;strokeColor=#3399FF;" vertex="1" parent="17"><mxGeometry x="450" y="199" width="80" height="40" as="geometry"/></mxCell><mxCell id="4" value="&lt;font style=&quot;font-size: 9px;&quot;&gt;AZ1&lt;/font&gt;" style="verticalLabelPosition=bottom;html=1;verticalAlign=top;align=center;shape=mxgraph.azure.virtual_machine;fillColor=#FFFFFF;strokeColor=#3399FF;" vertex="1" parent="17"><mxGeometry x="450" y="100" width="80" height="40" as="geometry"/></mxCell><mxCell id="58" value="" style="rounded=1;arcSize=10;dashed=1;fillColor=none;gradientColor=none;dashPattern=8 3 1 3;strokeWidth=2;strokeColor=#99CCFF;fontSize=11;fontColor=#FF8000;" vertex="1" parent="17"><mxGeometry x="270" y="10" width="320" height="310" as="geometry"/></mxCell><mxCell id="59" value="" style="verticalLabelPosition=bottom;html=1;verticalAlign=top;align=center;strokeColor=none;fillColor=#00BEF2;shape=mxgraph.azure.virtual_network;pointerEvents=1;fontSize=11;fontColor=#FF8000;" vertex="1" parent="17"><mxGeometry x="407" y="-2" width="50" height="24.500000000000004" as="geometry"/></mxCell><mxCell id="60" value="&lt;font color=&quot;#66b2ff&quot; style=&quot;font-size: 8px;&quot;&gt;VIRTUAL NETWORK&lt;/font&gt;" style="text;html=1;strokeColor=none;fillColor=none;align=center;verticalAlign=middle;whiteSpace=wrap;rounded=0;fontSize=11;fontColor=#FF8000;" vertex="1" parent="17"><mxGeometry x="304" y="10" width="90" height="30" as="geometry"/></mxCell><mxCell id="66" value="" style="edgeStyle=orthogonalEdgeStyle;rounded=0;orthogonalLoop=1;jettySize=auto;html=1;strokeColor=#330000;fontSize=8;fontColor=#66B2FF;entryX=0;entryY=0.5;entryDx=0;entryDy=0;" edge="1" parent="17" source="62" target="58"><mxGeometry relative="1" as="geometry"><mxPoint x="250" y="172" as="targetPoint"/></mxGeometry></mxCell><mxCell id="62" value="API Gateway" style="sketch=0;outlineConnect=0;fontColor=#232F3E;gradientColor=none;strokeColor=#ffffff;fillColor=#232F3E;dashed=0;verticalLabelPosition=middle;verticalAlign=bottom;align=center;html=1;whiteSpace=wrap;fontSize=10;fontStyle=1;spacing=3;shape=mxgraph.aws4.productIcon;prIcon=mxgraph.aws4.api_gateway;" vertex="1" parent="17"><mxGeometry x="60" y="110" width="80" height="110" as="geometry"/></mxCell><mxCell id="101" value="&lt;font color=&quot;#000000&quot; style=&quot;font-size: 7px;&quot;&gt;&lt;b style=&quot;&quot;&gt;PACKAGE MANAGER&lt;/b&gt;&lt;/font&gt;" style="rounded=0;whiteSpace=wrap;html=1;strokeColor=#FFFF99;fontSize=11;fontColor=#66B2FF;fillColor=#FFFFFF;gradientColor=#994C00;" vertex="1" parent="17"><mxGeometry x="309" y="260" width="80" height="30" as="geometry"/></mxCell><mxCell id="9" style="edgeStyle=orthogonalEdgeStyle;rounded=0;orthogonalLoop=1;jettySize=auto;html=1;entryX=0;entryY=0.5;entryDx=0;entryDy=0;entryPerimeter=0;strokeColor=#330000;" edge="1" parent="1" target="5"><mxGeometry relative="1" as="geometry"><mxPoint x="524.5" y="184" as="sourcePoint"/><mxPoint x="617" y="239" as="targetPoint"/></mxGeometry></mxCell><mxCell id="89" style="edgeStyle=orthogonalEdgeStyle;rounded=0;orthogonalLoop=1;jettySize=auto;html=1;strokeColor=#330000;fontSize=11;fontColor=#66B2FF;" edge="1" parent="1" source="50" target="88"><mxGeometry relative="1" as="geometry"/></mxCell><mxCell id="50" value="" style="image;html=1;image=img/lib/clip_art/networking/Firewall_02_128x128.png;strokeColor=#3399FF;fontSize=12;fillColor=#FFFFFF;gradientColor=#66B2FF;" vertex="1" parent="1"><mxGeometry x="-220" y="330" width="80" height="80" as="geometry"/></mxCell><mxCell id="56" value="" style="edgeStyle=orthogonalEdgeStyle;rounded=0;orthogonalLoop=1;jettySize=auto;html=1;entryX=0;entryY=0.5;entryDx=0;entryDy=0;entryPerimeter=0;strokeColor=#330000;" edge="1" parent="1"><mxGeometry relative="1" as="geometry"><mxPoint x="528.5" y="184" as="sourcePoint"/><mxPoint x="601" y="140" as="targetPoint"/><Array as="points"><mxPoint x="562" y="184"/><mxPoint x="562" y="139"/></Array></mxGeometry></mxCell><mxCell id="57" value="&lt;font color=&quot;#ff8000&quot; style=&quot;font-size: 11px;&quot;&gt;Auto Scaling group&lt;/font&gt;" style="points=[[0,0],[0.25,0],[0.5,0],[0.75,0],[1,0],[1,0.25],[1,0.5],[1,0.75],[1,1],[0.75,1],[0.5,1],[0.25,1],[0,1],[0,0.75],[0,0.5],[0,0.25]];outlineConnect=0;gradientColor=none;html=1;whiteSpace=wrap;fontSize=12;fontStyle=0;container=1;pointerEvents=0;collapsible=0;recursiveResize=0;shape=mxgraph.aws4.groupCenter;grIcon=mxgraph.aws4.group_auto_scaling_group;grStroke=1;strokeColor=#FF0000;fillColor=none;verticalAlign=top;align=center;fontColor=#D86613;dashed=1;spacingTop=25;" vertex="1" parent="1"><mxGeometry x="580" y="70" width="130" height="240" as="geometry"/></mxCell><mxCell id="68" value="SINGAPORE - PASSIVE" style="points=[[0,0],[0.25,0],[0.5,0],[0.75,0],[1,0],[1,0.25],[1,0.5],[1,0.75],[1,1],[0.75,1],[0.5,1],[0.25,1],[0,1],[0,0.75],[0,0.5],[0,0.25]];outlineConnect=0;html=1;whiteSpace=wrap;fontSize=12;fontStyle=0;container=1;pointerEvents=0;collapsible=0;recursiveResize=0;shape=mxgraph.aws4.group;grIcon=mxgraph.aws4.group_region;verticalAlign=top;align=left;spacingLeft=30;dashed=1;strokeColor=#FF0000;" vertex="1" parent="1"><mxGeometry x="150" y="410" width="610" height="336.88" as="geometry"/></mxCell><mxCell id="69" value="Private subnet" style="points=[[0,0],[0.25,0],[0.5,0],[0.75,0],[1,0],[1,0.25],[1,0.5],[1,0.75],[1,1],[0.75,1],[0.5,1],[0.25,1],[0,1],[0,0.75],[0,0.5],[0,0.25]];outlineConnect=0;html=1;whiteSpace=wrap;fontSize=12;fontStyle=0;container=1;pointerEvents=0;collapsible=0;recursiveResize=0;shape=mxgraph.aws4.group;grIcon=mxgraph.aws4.group_security_group;grStroke=0;verticalAlign=top;align=left;spacingLeft=30;dashed=0;strokeColor=#66B2FF;perimeterSpacing=1;fillColor=#FFFFFF;gradientColor=#3399FF;" vertex="1" parent="68"><mxGeometry x="290" y="40" width="280" height="263.12" as="geometry"/></mxCell><mxCell id="70" value="&lt;font style=&quot;font-size: 9px;&quot;&gt;INTERNAL&lt;br&gt;LOAD BALANCER&lt;/font&gt;" style="verticalLabelPosition=bottom;html=1;verticalAlign=top;align=center;shape=mxgraph.azure.load_balancer_generic;pointerEvents=1;direction=north;fillColor=#66B2FF;strokeColor=#3399FF;" vertex="1" parent="68"><mxGeometry x="304" y="140" width="70" height="47.5" as="geometry"/></mxCell><mxCell id="71" value="&lt;font style=&quot;font-size: 9px;&quot;&gt;AZ2&lt;/font&gt;" style="verticalLabelPosition=bottom;html=1;verticalAlign=top;align=center;shape=mxgraph.azure.virtual_machine;fillColor=#FFFFFF;strokeColor=#3399FF;" vertex="1" parent="68"><mxGeometry x="450" y="199" width="80" height="40" as="geometry"/></mxCell><mxCell id="72" value="&lt;font style=&quot;font-size: 9px;&quot;&gt;AZ1&lt;/font&gt;" style="verticalLabelPosition=bottom;html=1;verticalAlign=top;align=center;shape=mxgraph.azure.virtual_machine;fillColor=#FFFFFF;strokeColor=#3399FF;" vertex="1" parent="68"><mxGeometry x="450" y="100" width="80" height="40" as="geometry"/></mxCell><mxCell id="73" value="" style="rounded=1;arcSize=10;dashed=1;fillColor=none;gradientColor=none;dashPattern=8 3 1 3;strokeWidth=2;strokeColor=#99CCFF;fontSize=11;fontColor=#FF8000;" vertex="1" parent="68"><mxGeometry x="270" y="10" width="320" height="310" as="geometry"/></mxCell><mxCell id="74" value="" style="verticalLabelPosition=bottom;html=1;verticalAlign=top;align=center;strokeColor=none;fillColor=#00BEF2;shape=mxgraph.azure.virtual_network;pointerEvents=1;fontSize=11;fontColor=#FF8000;" vertex="1" parent="68"><mxGeometry x="397" y="-2" width="50" height="24.500000000000004" as="geometry"/></mxCell><mxCell id="75" value="&lt;font color=&quot;#66b2ff&quot; style=&quot;font-size: 8px;&quot;&gt;VIRTUAL NETWORK&lt;/font&gt;" style="text;html=1;strokeColor=none;fillColor=none;align=center;verticalAlign=middle;whiteSpace=wrap;rounded=0;fontSize=11;fontColor=#FF8000;" vertex="1" parent="68"><mxGeometry x="304" y="10" width="90" height="30" as="geometry"/></mxCell><mxCell id="76" value="" style="edgeStyle=orthogonalEdgeStyle;rounded=0;orthogonalLoop=1;jettySize=auto;html=1;strokeColor=#330000;fontSize=8;fontColor=#66B2FF;entryX=0;entryY=0.5;entryDx=0;entryDy=0;" edge="1" parent="68" source="77" target="73"><mxGeometry relative="1" as="geometry"><mxPoint x="250" y="172" as="targetPoint"/></mxGeometry></mxCell><mxCell id="77" value="API Gateway" style="sketch=0;outlineConnect=0;fontColor=#232F3E;gradientColor=none;strokeColor=#ffffff;fillColor=#232F3E;dashed=0;verticalLabelPosition=middle;verticalAlign=bottom;align=center;html=1;whiteSpace=wrap;fontSize=10;fontStyle=1;spacing=3;shape=mxgraph.aws4.productIcon;prIcon=mxgraph.aws4.api_gateway;" vertex="1" parent="68"><mxGeometry x="60" y="110" width="80" height="110" as="geometry"/></mxCell><mxCell id="107" value="&lt;font color=&quot;#000000&quot; style=&quot;font-size: 7px;&quot;&gt;&lt;b style=&quot;&quot;&gt;PACKAGE MANAGER&lt;/b&gt;&lt;/font&gt;" style="rounded=0;whiteSpace=wrap;html=1;strokeColor=#FFFF99;fontSize=11;fontColor=#66B2FF;fillColor=#FFFFFF;gradientColor=#994C00;" vertex="1" parent="68"><mxGeometry x="317" y="260" width="80" height="30" as="geometry"/></mxCell><mxCell id="80" style="edgeStyle=orthogonalEdgeStyle;rounded=0;orthogonalLoop=1;jettySize=auto;html=1;entryX=0;entryY=0.5;entryDx=0;entryDy=0;entryPerimeter=0;strokeColor=#330000;" edge="1" parent="1" target="71"><mxGeometry relative="1" as="geometry"><mxPoint x="524.5" y="574" as="sourcePoint"/><mxPoint x="617" y="629" as="targetPoint"/></mxGeometry></mxCell><mxCell id="81" value="" style="edgeStyle=orthogonalEdgeStyle;rounded=0;orthogonalLoop=1;jettySize=auto;html=1;entryX=0;entryY=0.5;entryDx=0;entryDy=0;entryPerimeter=0;strokeColor=#330000;" edge="1" parent="1"><mxGeometry relative="1" as="geometry"><mxPoint x="528.5" y="574" as="sourcePoint"/><mxPoint x="601" y="530" as="targetPoint"/><Array as="points"><mxPoint x="562" y="574"/><mxPoint x="562" y="529"/></Array></mxGeometry></mxCell><mxCell id="82" value="&lt;font color=&quot;#ff8000&quot; style=&quot;font-size: 11px;&quot;&gt;Auto Scaling group&lt;/font&gt;" style="points=[[0,0],[0.25,0],[0.5,0],[0.75,0],[1,0],[1,0.25],[1,0.5],[1,0.75],[1,1],[0.75,1],[0.5,1],[0.25,1],[0,1],[0,0.75],[0,0.5],[0,0.25]];outlineConnect=0;gradientColor=none;html=1;whiteSpace=wrap;fontSize=12;fontStyle=0;container=1;pointerEvents=0;collapsible=0;recursiveResize=0;shape=mxgraph.aws4.groupCenter;grIcon=mxgraph.aws4.group_auto_scaling_group;grStroke=1;strokeColor=#FF0000;fillColor=none;verticalAlign=top;align=center;fontColor=#D86613;dashed=1;spacingTop=25;" vertex="1" parent="1"><mxGeometry x="580" y="460" width="130" height="240" as="geometry"/></mxCell><mxCell id="91" style="edgeStyle=orthogonalEdgeStyle;rounded=0;orthogonalLoop=1;jettySize=auto;html=1;entryX=0.464;entryY=1.066;entryDx=0;entryDy=0;entryPerimeter=0;strokeColor=#330000;fontSize=11;fontColor=#66B2FF;" edge="1" parent="1" source="88" target="90"><mxGeometry relative="1" as="geometry"/></mxCell><mxCell id="93" style="edgeStyle=orthogonalEdgeStyle;rounded=0;orthogonalLoop=1;jettySize=auto;html=1;strokeColor=#66B2FF;fontSize=11;fontColor=#66B2FF;entryX=0;entryY=0.5;entryDx=0;entryDy=0;" edge="1" parent="1" source="88" target="17"><mxGeometry relative="1" as="geometry"><mxPoint x="140" y="192" as="targetPoint"/></mxGeometry></mxCell><mxCell id="94" style="edgeStyle=orthogonalEdgeStyle;rounded=0;orthogonalLoop=1;jettySize=auto;html=1;entryX=0;entryY=0.5;entryDx=0;entryDy=0;strokeColor=#FF0000;fontSize=11;fontColor=#66B2FF;" edge="1" parent="1" source="88" target="68"><mxGeometry relative="1" as="geometry"/></mxCell><mxCell id="88" value="USES&amp;nbsp;&lt;br&gt;FAILOVER ROUTING" style="aspect=fixed;html=1;points=[];align=center;image;fontSize=12;image=img/lib/azure2/networking/DNS_Zones.svg;strokeColor=#99CCFF;fontColor=#66B2FF;fillColor=#FFFFFF;gradientColor=#66B2FF;" vertex="1" parent="1"><mxGeometry x="-20" y="338" width="64" height="64" as="geometry"/></mxCell><mxCell id="90" value="DDOS SECURITY" style="aspect=fixed;html=1;points=[];align=center;image;fontSize=12;image=img/lib/azure2/networking/DDoS_Protection_Plans.svg;strokeColor=#99CCFF;fontColor=#66B2FF;fillColor=#FFFFFF;gradientColor=#66B2FF;" vertex="1" parent="1"><mxGeometry x="-20" y="209" width="67" height="68" as="geometry"/></mxCell><mxCell id="97" value="CLOUD" style="text;html=1;strokeColor=none;fillColor=none;align=center;verticalAlign=middle;whiteSpace=wrap;rounded=0;fontSize=11;fontColor=#66B2FF;" vertex="1" parent="1"><mxGeometry x="-180" width="60" height="30" as="geometry"/></mxCell><mxCell id="100" style="edgeStyle=orthogonalEdgeStyle;rounded=0;orthogonalLoop=1;jettySize=auto;html=1;entryX=-0.006;entryY=0.588;entryDx=0;entryDy=0;entryPerimeter=0;strokeColor=#330000;fontSize=11;fontColor=#66B2FF;" edge="1" parent="1" source="98" target="50"><mxGeometry relative="1" as="geometry"/></mxCell><mxCell id="98" value="" style="sketch=0;pointerEvents=1;shadow=0;dashed=0;html=1;strokeColor=none;labelPosition=center;verticalLabelPosition=bottom;verticalAlign=top;align=center;fillColor=#505050;shape=mxgraph.mscae.intune.device_group;fontSize=11;fontColor=#66B2FF;" vertex="1" parent="1"><mxGeometry x="-420" y="352" width="50" height="50" as="geometry"/></mxCell></root></mxGraphModel></diagram></mxfile>